{"title":"Mard Ki Zuban (2011) Hindi Dubbed DVD Rip {shilpa143} =[PDR]=","uid":9407737,"size":387390818,"categoryP":"video","categoryS":"movies","magnet":"?xt=urn:btih:03c847d477c12b9f9e4041ba0de6bc1f5cdcf3ab&amp;dn=Mard+Ki+Zuban+%282011%29+Hindi+Dubbed+DVD+Rip+%7Bshilpa143%7D+%3D%5BPDR%5D%3D&amp;tr=udp%3A%2F%2Ftracker.openbittorrent.com%3A80&amp;tr=udp%3A%2F%2Fopen.demonii.com%3A1337&amp;tr=udp%3A%2F%2Ftracker.coppersurfer.tk%3A6969&amp;tr=udp%3A%2F%2Fexodus.desync.com%3A6969","seeders":1,"leechers":1,"uploader":"shilpa143","files":22,"time":1388200948,"description":"[img]http://s28.postimg.org/ykyji3r19/200px_Poster_Mogudu_1.jpg[/img]\n\n\n[img]http://i.cubeupload.com/8K6BPX.png[/img]\n\n[b]Directed by \tKrishna Vamsi\nProduced by \tNallamalapu Srinivas (Bujji)\nStarring \tGopichand\nTaapsee Pannu\nShraddha Das\nGadde Rajendra Prasad\nNaresh\nRoja\nMusic by \tBabu Shankar\nCinematography \tSrikanth Naroju\nEditing by \tGowtham Raju\nStudio \t\tLakshmi Narasimha Productions\nRelease dates \tNovember 4, 2011\nCountry \tIndia\nLanguage \tTelugu\n\n\n\nPlot :-\n\nBujji ( Gopichand) is the only son of a wealthy and influential farmer Anjaneya Prasad ( Gadde Rajendra Prasad). The family is well knit together and has strong values and attachments. Bujji comes across Raja Rajeshwari ( Taapsee Pannu) in unexpected circumstances and falls in love with her. Raja Rajeshwari is the daughter of a powerful politician Chamundeshwari ( Roja) and Shankar Rao ( Naresh). [/b]\n\n[img]http://i.cubeupload.com/TaXMhY.png[/img]\n\n[b]General\nComplete name                            : Mard Ki Zuban\nFormat                                   : MPEG-4\nFormat profile                           : Base Media\nCodec ID                                 : isom\nFile size                                : 365 MiB\nDuration                                 : 1h 39mn\nOverall bit rate                         : 511 Kbps\nTagged date                              : UTC 2013-12-26 04:03:43\nWriting application                      : Lavf53.24.2\n\nVideo\nID                                       : 1\nFormat                                   : AVC\nFormat/Info                              : Advanced Video Codec\nFormat profile                           : &lt;a class=&quot;__cf_email__&quot; href=&quot;/cdn-cgi/l/email-protection&quot; data-cfemail=&quot;95ddfcf2fdd5d9a6bba5&quot;&gt;[email&amp;#160;protected]&lt;/a&gt;&lt;script cf-hash='f9e31' type=&quot;text/javascript&quot;&gt;\n/* &lt;![CDATA[ */!function(){try{var t=&quot;currentScript&quot;in document?document.currentScript:function(){for(var t=document.getElementsByTagName(&quot;script&quot;),e=t.length;e--;)if(t[e].getAttribute(&quot;cf-hash&quot;))return t[e]}();if(t&amp;&amp;t.previousSibling){var e,r,n,i,c=t.previousSibling,a=c.getAttribute(&quot;data-cfemail&quot;);if(a){for(e=&quot;&quot;,r=parseInt(a.substr(0,2),16),n=2;a.length-n;n+=2)i=parseInt(a.substr(n,2),16)^r,e+=String.fromCharCode(i);e=document.createTextNode(e),c.parentNode.replaceChild(e,c)}}}catch(u){}}();/* ]]&gt; */&lt;/script&gt;\nFormat settings, CABAC                   : Yes\nFormat settings, ReFrames                : 4 frames\nCodec ID                                 : avc1\nCodec ID/Info                            : Advanced Video Coding\nDuration                                 : 1h 39mn\nBit rate                                 : 440 Kbps\nWidth                                    : 728 pixels\nHeight                                   : 288 pixels\nDisplay aspect ratio                     : 2.528\nFrame rate mode                          : Constant\nFrame rate                               : 25.000 fps\nColor space                              : YUV\nChroma subsampling                       : 4:2:0\nBit depth                                : 8 bits\nScan type                                : Progressive\nBits/(Pixel*Frame)                       : 0.084\nStream size                              : 315 MiB (86%)\nWriting library                          : x264 core 118\n\nAudio\nID                                       : 2\nFormat                                   : MPEG Audio\nFormat version                           : Version 1\nFormat profile                           : Layer 3\nMode                                     : Joint stereo\nMode extension                           : MS Stereo\nCodec ID                                 : 6B\nDuration                                 : 1h 39mn\nBit rate mode                            : Constant\nBit rate                                 : 64.0 Kbps\nChannel count                            : 2 channels\nSampling rate                            : 48.0 KHz\nCompression mode                         : Lossy\nDelay relative to video                  : 80ms\nStream size                              : 45.7 MiB (13%)\nWriting library                          : LAME3.98.4\n\n[/b]\n\n\n[img]http://i.cubeupload.com/eh1EHE.png[/img]\n\n\n[img]http://s28.postimg.org/pr7n1042l/Mard_Ki_Zuban.jpg[/img]\n\n\n\n\n\n[img]http://s22.postimg.org/bhay4358x/thanks.jpg[/img]\n\n\n[img]http://i.cubeupload.com/x83wjq.gif[/img]\n\n\n[img]http://s28.postimg.org/timog9sil/cooltext1344496247.gif[/img]","torrent":{"xt":"urn:btih:03c847d477c12b9f9e4041ba0de6bc1f5cdcf3ab","amp;dn":"Mard+Ki+Zuban+%282011%29+Hindi+Dubbed+DVD+Rip+%7Bshilpa143%7D+%3D%5BPDR%5D%3D","amp;tr":["udp%3A%2F%2Ftracker.openbittorrent.com%3A80","udp%3A%2F%2Fopen.demonii.com%3A1337","udp%3A%2F%2Ftracker.coppersurfer.tk%3A6969","udp%3A%2F%2Fexodus.desync.com%3A6969"],"infoHash":"03c847d477c12b9f9e4041ba0de6bc1f5cdcf3ab","infoHashBuffer":{"type":"Buffer","data":[3,200,71,212,119,193,43,159,158,64,65,186,13,230,188,31,92,220,243,171]},"announce":[],"urlList":[]}}